<svg width="134" height="41" viewBox="0 0 134 41" fill="none" xmlns="http://www.w3.org/2000/svg">
<path d="M7 27.9477C23.7234 13.7329 34.4289 6.41004 38.4323 7.03717C42.4326 7.66379 44.1588 12.7193 45.6285 16.9382C48.0537 23.9002 61.427 19.51 68.0023 17.1852C69.4154 16.6856 71.157 17.3816 72.6456 18.4331C79.0339 22.9458 79.6327 29.202 81.1023 31.5204C81.9033 32.7841 83.8262 33.4208 85.5238 33.8516C87.2215 34.2823 88.8939 34.2823 91.0096 32.819C101.297 25.7042 99.9034 16.5581 101.582 14.4487C109.595 13.9989 117.197 18.2178 122.48 20.1308C123.962 20.3462 125.635 20.3462 127.358 20.3462" stroke="#F26B0F" stroke-width="13" stroke-linecap="round"/>
</svg>
