<svg width="233" height="158" viewBox="0 0 233 158" fill="none" xmlns="http://www.w3.org/2000/svg">
<g style="mix-blend-mode:overlay" clip-path="url(#clip0_210_236)">
<path d="M192.438 67.0174L215.418 109.35C209.589 109.213 203.758 110.114 197.998 112.015L177.866 74.9281L61.2872 138.213L100.841 211.075L167.072 175.121C168.013 177.723 169.026 180.286 170.371 182.763C171.716 185.24 173.313 187.487 174.982 189.693L108.751 225.647C104.886 227.745 100.346 228.222 96.13 226.973C91.9136 225.723 88.3663 222.85 86.2682 218.986L38.8042 131.552C34.4138 123.464 37.3782 113.459 45.4659 109.069L89.1828 85.3368L111.666 91.9985L169.955 60.3558C173.82 58.2578 178.36 57.7809 182.576 59.0302C186.792 60.2795 190.34 63.1526 192.438 67.0174ZM211.382 188.8L235.947 147.165L187.65 145.083L211.382 188.8Z" fill="black"/>
</g>
<defs>
<clipPath id="clip0_210_236">
<rect width="198.972" height="198.972" fill="white" transform="translate(0.5 95.7456) rotate(-28.4956)"/>
</clipPath>
</defs>
</svg>
